<svg version="1.1" xmlns="http://www.w3.org/2000/svg" xmlns:xlink="http://www.w3.org/1999/xlink" width="48" height="48"><defs><linearGradient x1="13.76466" y1="13.97029" x2="47.67035" y2="47.46474" gradientUnits="userSpaceOnUse" id="color-1"><stop offset="0.32" stop-color="#000000" stop-opacity="0.13"></stop><stop offset="1" stop-color="#000000" stop-opacity="0"></stop></linearGradient><filter id="dropshadow-base"><feColorMatrix type="matrix" values="0 0 0 0 0  0 0 0 0 0  0 0 0 0 0  0 0 0 .8 0"></feColorMatrix> <feOffset dx="0" dy="1"></feOffset> <feGaussianBlur stdDeviation="1"></feGaussianBlur> <feComposite in="SourceGraphic"></feComposite></filter><filter id="dropshadow-banner" x="-10%" y="-10%" width="120%" height="130%"><feColorMatrix type="matrix" values="0 0 0 0 0  0 0 0 0 0  0 0 0 0 0  0 0 0 .4 0"></feColorMatrix> <feOffset dx="0" dy="1"></feOffset> <feGaussianBlur stdDeviation="0.5"></feGaussianBlur> <feComposite in="SourceGraphic"></feComposite></filter></defs><g fill="none" fill-rule="nonzero" stroke="none" stroke-width="none" stroke-linecap="butt" stroke-linejoin="miter" stroke-miterlimit="10" stroke-dasharray="" stroke-dashoffset="0" font-family="none" font-weight="none" font-size="none" text-anchor="none" style="mix-blend-mode: normal"><path d="M2,24c0,-12.15026 9.84974,-22 22,-22c12.15026,0 22,9.84974 22,22c0,12.15026 -9.84974,22 -22,22c-12.15026,0 -22,-9.84974 -22,-22z" id="base 1 5" fill="#ffe175" stroke-width="1"></path><path d="M41.2127,36.40345l0.56239,0.56239c-3.48818,4.77385 -8.85293,8.08963 -15.00882,8.86192l-12.39983,-12.39983c-0.39116,-0.40118 -0.60179,-0.85253 -0.60179,-1.40416v-14.0416c0,-0.53157 0.21062,-1.00297 0.60179,-1.41419c0.40118,-0.40118 0.85253,-0.59176 1.40416,-0.59176h5.51634l1.59276,1.59276c0.17088,-0.85498 0.58886,-1.6154 1.24566,-2.26474c0.87258,-0.88261 1.94577,-1.33395 3.17942,-1.33395c1.26352,0 2.31978,0.44409 3.18839,1.3127l13.43503,13.43503c0.0017,0.0017 0.0034,0.00341 0.0051,0.00511l0.03601,0.03601c0.50602,0.50602 0.85806,1.07893 1.06387,1.71099c-0.62015,2.01838 -1.52284,3.91307 -2.66194,5.6379c-0.38262,0.15343 -0.76918,0.25077 -1.15855,0.29541z" fill="url(#color-1)" stroke-width="1"></path><path d="M27.30479,20.99109c0.70208,0 1.29383,-0.24071 1.77526,-0.73217c0.49146,-0.48143 0.73217,-1.07318 0.73217,-1.77526c0,-0.67199 -0.24071,-1.27377 -0.73217,-1.77526c-0.48143,-0.50149 -1.07318,-0.73217 -1.77526,-0.73217c-0.67199,0 -1.27377,0.23068 -1.77526,0.73217c-0.50149,0.50149 -0.73217,1.10327 -0.73217,1.77526c0,0.70208 0.23068,1.29383 0.73217,1.77526c0.50149,0.49146 1.10327,0.73217 1.77526,0.73217zM31.12611,20.90082l3.10921,3.09918l-1.41419,1.41419l-3.14933,-3.10921c-0.78232,0.4714 -1.58469,0.69205 -2.3971,0.69205c-1.25371,0 -2.31686,-0.42125 -3.17942,-1.30386c-0.85253,-0.87258 -1.30386,-1.93573 -1.30386,-3.20951c0,-1.23365 0.45134,-2.30683 1.33395,-3.17942c0.87258,-0.88261 1.94576,-1.33395 3.17942,-1.33395c1.27377,0 2.33692,0.45134 3.20951,1.33395c0.88261,0.87258 1.30386,1.94576 1.30386,3.17942c0,0.83247 -0.22065,1.63484 -0.69205,2.41716zM28.30776,30.01783h-11.03268l2.75817,-3.5104l1.97585,2.33692l2.72808,-3.53046l3.57058,4.70393zM29.81222,25.00297l2.00594,2.00594v5.01486c0,0.55163 -0.19056,1.00297 -0.59175,1.40416c-0.41122,0.39116 -0.88261,0.60178 -1.41419,0.60178h-14.0416c-0.55163,0 -1.00297,-0.21062 -1.40416,-0.60178c-0.39116,-0.40119 -0.60178,-0.85253 -0.60178,-1.40416v-14.0416c0,-0.53157 0.21062,-1.00297 0.60178,-1.41419c0.40119,-0.40119 0.85253,-0.59175 1.40416,-0.59175h5.51634c-0.30089,0.6419 -0.4714,1.31389 -0.50149,2.00594h-5.01486v14.0416h14.0416z" fill="none" stroke-width="0"></path><path d="M29.08005,20.25892c0.49146,-0.48143 0.73217,-1.07318 0.73217,-1.77526c0,-0.67199 -0.24071,-1.27377 -0.73217,-1.77526c-0.48143,-0.50149 -1.07318,-0.73217 -1.77526,-0.73217c-0.67199,0 -1.27377,0.23068 -1.77526,0.73217c-0.50149,0.50149 -0.73217,1.10327 -0.73217,1.77526c0,0.70208 0.23068,1.29383 0.73217,1.77526c0.50149,0.49146 1.10327,0.73217 1.77526,0.73217c0.70208,0 1.29383,-0.24071 1.77526,-0.73217zM34.23532,24l-1.41419,1.41419l-3.14933,-3.10921c-0.78232,0.4714 -1.58469,0.69205 -2.3971,0.69205c-1.25371,0 -2.31686,-0.42125 -3.17942,-1.30386c-0.85253,-0.87258 -1.30386,-1.93573 -1.30386,-3.20951c0,-1.23365 0.45134,-2.30683 1.33395,-3.17942c0.87258,-0.88261 1.94576,-1.33395 3.17942,-1.33395c1.27377,0 2.33692,0.45134 3.20951,1.33395c0.88261,0.87258 1.30386,1.94576 1.30386,3.17942c0,0.83247 -0.22065,1.63484 -0.69205,2.41716zM17.27508,30.01783l2.75817,-3.5104l1.97585,2.33692l2.72808,-3.53046l3.57058,4.70393zM29.81222,25.00297l2.00594,2.00594v5.01486c0,0.55163 -0.19056,1.00297 -0.59175,1.40416c-0.41122,0.39116 -0.88261,0.60178 -1.41419,0.60178h-14.0416c-0.55163,0 -1.00297,-0.21062 -1.40416,-0.60178c-0.39116,-0.40119 -0.60178,-0.85253 -0.60178,-1.40416v-14.0416c0,-0.53157 0.21062,-1.00297 0.60178,-1.41419c0.40119,-0.40119 0.85253,-0.59175 1.40416,-0.59175h5.51634c-0.30089,0.6419 -0.4714,1.31389 -0.50149,2.00594h-5.01486v14.0416h14.0416z" fill-opacity="0.61" fill="#000000" stroke-width="0"></path><path d="M2,24c0,-12.15026 9.84974,-22 22,-22c12.15026,0 22,9.84974 22,22c0,12.15026 -9.84974,22 -22,22c-12.15026,0 -22,-9.84974 -22,-22z" id="base 1 1 1" fill="none" stroke-width="1"></path><g fill="#000000" stroke-width="1" font-family="Roboto, sans-serif" font-weight="400" font-size="14" text-anchor="start"></g><rect x="2" y="2" width="44" height="22" fill="none" stroke-width="1"></rect><path d="M2,24v-22h44v22z" fill="none" stroke-width="1"></path><path d="M2,24v-22h44v22z" fill="none" stroke-width="1"></path><path d="M2,24v-22h44v22z" fill="none" stroke-width="1"></path><path d="M2,24v-22h44v22z" fill="none" stroke-width="1"></path></g></svg>